<?xml version="1.0" standalone="no"?>
<!DOCTYPE svg PUBLIC "-//W3C//DTD SVG 20010904//EN"
 "http://www.w3.org/TR/2001/REC-SVG-20010904/DTD/svg10.dtd">
<svg version="1.0" xmlns="http://www.w3.org/2000/svg"
 width="655.000000pt" height="655.000000pt" viewBox="0 0 655.000000 655.000000"
 preserveAspectRatio="xMidYMid meet">
<metadata>
Created by potrace 1.10, written by Peter Selinger 2001-2011
</metadata>
<g transform="translate(0.000000,655.000000) scale(0.100000,-0.100000)"
fill="#000000" stroke="none">
<path d="M1935 6328 c-281 -53 -399 -96 -674 -246 -193 -105 -440 -326 -599
-537 -156 -207 -279 -495 -334 -782 -26 -136 -37 -471 -19 -558 6 -27 20 -98
31 -158 43 -222 155 -493 274 -667 25 -36 57 -82 71 -104 38 -55 286 -302 372
-370 58 -45 73 -62 73 -84 1 -30 51 -218 89 -327 13 -40 55 -176 75 -245 61
-212 56 -200 87 -200 16 0 29 3 29 6 0 15 -112 395 -142 479 -78 225 -101 374
-101 650 0 279 20 396 113 675 26 77 41 143 45 200 8 89 26 150 45 150 6 0 21
-10 32 -23 l21 -24 75 79 c41 43 80 78 86 78 7 0 27 12 45 28 29 24 31 30 22
55 -17 43 -13 108 9 180 18 59 19 68 5 113 -8 27 -15 70 -15 95 0 25 -3 49 -6
52 -4 4 -8 21 -10 39 -5 65 -9 667 -5 840 3 98 2 180 -1 183 -3 3 -32 -7 -64
-22 l-59 -28 3 -47 c2 -27 -1 -48 -6 -48 -17 0 -15 -599 3 -715 8 -55 20 -141
25 -191 5 -50 17 -118 26 -150 25 -88 28 -156 9 -213 -13 -39 -21 -50 -42 -54
-38 -7 -53 1 -53 30 0 31 -67 166 -89 180 -19 12 -91 -4 -91 -19 0 -5 -10 -8
-21 -8 -18 0 -20 4 -14 23 3 12 11 42 16 66 5 24 14 50 20 58 16 18 18 38 29
248 12 238 26 403 44 555 16 127 20 210 11 210 -3 0 -27 -14 -53 -32 l-49 -32
-12 -115 c-13 -119 -17 -623 -6 -652 6 -16 -18 -49 -35 -49 -4 0 -10 -9 -13
-20 -5 -21 -15 -24 -34 -12 -12 8 -37 217 -28 232 8 14 35 519 28 529 -2 3
-18 -10 -37 -28 -49 -47 -59 -121 -53 -396 4 -204 9 -253 37 -405 23 -121 23
-147 5 -153 -9 -4 -25 -2 -35 3 -50 27 -119 4 -120 -41 0 -9 -11 -29 -25 -45
-14 -16 -25 -34 -25 -41 0 -9 -8 -9 -29 -2 -27 9 -31 16 -37 67 -13 94 -8 172
15 262 13 47 27 114 32 150 10 65 21 350 15 350 -8 0 -77 -109 -118 -186 l-42
-79 -4 -190 c-3 -116 0 -221 7 -270 20 -136 19 -190 -5 -212 -11 -10 -33 -43
-48 -73 -16 -30 -32 -63 -37 -72 -4 -9 -13 -45 -20 -80 -10 -56 -9 -73 11
-153 60 -243 206 -514 373 -691 l74 -79 7 -162 c4 -90 5 -163 2 -163 -3 0 -45
33 -93 74 -81 67 -153 139 -242 240 -56 64 -178 250 -225 344 -148 296 -229
691 -198 967 66 575 307 1010 747 1345 178 135 448 266 670 324 169 45 228 51
485 51 215 -1 259 -3 355 -23 376 -78 715 -260 980 -526 280 -282 442 -584
522 -976 13 -67 17 -136 17 -330 -1 -135 -5 -270 -11 -301 -70 -370 -231 -695
-471 -950 -76 -80 -251 -239 -263 -239 -2 0 -4 71 -4 158 l0 159 75 80 c41 44
102 117 134 162 74 103 173 298 211 415 28 86 28 90 12 118 -9 16 -17 36 -17
45 0 8 -6 29 -14 46 -7 18 -21 48 -30 69 -9 20 -16 40 -16 46 0 5 -7 15 -15
22 -20 16 -20 106 0 185 44 172 89 429 82 468 -7 43 -73 196 -122 282 l-40 70
-3 -58 c-2 -31 2 -83 9 -115 7 -31 14 -85 16 -119 4 -51 2 -63 -10 -63 -35 0
-127 -166 -127 -230 0 -33 -41 -87 -58 -76 -16 9 -32 73 -27 105 3 14 14 82
25 151 19 112 20 140 10 254 -5 71 -10 186 -10 255 l0 127 -56 54 c-31 30 -53
46 -48 35 10 -23 14 -205 5 -220 -11 -19 -1 -208 13 -254 21 -66 29 -187 16
-250 -10 -56 -23 -73 -46 -64 -15 6 -74 -24 -74 -37 0 -6 -6 -10 -14 -10 -9 0
-16 19 -21 58 -9 64 -9 455 0 719 l6 173 -78 50 c-76 51 -78 51 -84 28 -9 -35
2 -629 15 -739 3 -33 16 -68 50 -138 6 -13 11 -63 11 -110 0 -47 4 -89 9 -93
6 -4 3 -34 -8 -75 -10 -37 -21 -81 -25 -98 -12 -50 -36 -43 -61 17 -16 40 -31
59 -60 76 -38 21 -38 21 -63 2 -30 -24 -43 -25 -51 -4 -10 25 -7 309 3 320 5
5 17 34 26 64 14 46 18 116 22 437 5 339 4 387 -11 417 -13 27 -33 46 -50 46
-2 0 -5 -117 -8 -350 0 -58 3 -147 7 -198 8 -104 1 -122 -46 -122 -50 0 -62
33 -55 152 3 57 9 203 12 326 l6 222 -36 15 c-19 8 -38 15 -40 15 -3 0 -4
-154 -2 -342 2 -259 6 -349 16 -367 13 -26 27 -104 36 -211 4 -36 10 -69 15
-74 5 -6 9 -27 9 -48 0 -20 4 -70 9 -110 15 -116 30 -248 37 -313 3 -33 10
-80 16 -105 6 -25 12 -56 13 -68 4 -29 33 -62 54 -62 9 0 35 -28 58 -62 43
-62 43 -62 49 -32 12 61 54 83 71 37 4 -10 10 -20 14 -23 4 -3 11 -59 15 -125
4 -80 12 -133 24 -160 58 -131 98 -253 123 -375 32 -156 38 -222 40 -396 1
-154 -2 -192 -21 -274 -34 -143 -72 -276 -102 -360 -32 -87 -71 -222 -94 -330
-10 -41 -19 -83 -22 -92 -4 -14 1 -18 25 -18 33 0 33 1 61 130 6 30 20 84 31
120 11 36 25 81 30 100 6 19 21 64 34 100 23 66 50 160 80 282 17 65 20 70 84
119 104 81 349 335 423 439 124 174 242 440 288 650 12 52 26 118 32 145 7 29
11 148 11 290 0 220 -2 251 -26 371 -45 219 -140 465 -242 624 -117 184 -326
411 -491 537 -248 187 -540 313 -851 368 -100 17 -561 20 -648 3z m1749 -1673
c0 -84 -4 -118 -17 -142 -16 -31 -47 -46 -47 -23 0 6 -12 16 -26 22 -24 11
-25 15 -19 57 4 26 10 48 15 51 4 3 10 21 14 40 15 78 19 90 27 90 5 0 9 9 9
19 0 25 22 33 35 12 6 -9 10 -65 9 -126z m-317 5 c18 -40 34 -205 22 -239 -12
-33 -38 -48 -50 -29 -19 31 -36 54 -71 95 -21 24 -38 55 -38 67 0 13 17 49 37
80 31 47 42 56 63 54 15 -2 30 -13 37 -28z m-2307 -69 c0 -5 7 -11 16 -13 18
-3 41 -59 56 -136 l10 -54 -36 -34 c-20 -19 -42 -34 -49 -34 -7 0 -26 13 -40
28 -23 24 -27 37 -25 70 2 23 6 42 11 42 4 0 7 18 7 39 0 22 5 43 10 46 6 3
10 17 10 31 0 15 6 24 15 24 8 0 15 -4 15 -9z m318 -110 c28 -75 29 -181 0
-181 -34 0 -77 -34 -94 -76 -10 -24 -20 -44 -22 -44 -3 0 -11 8 -18 18 -15 19
-20 182 -6 182 4 0 14 28 21 63 19 87 26 97 64 97 30 0 34 -4 55 -59z m1651 0
c25 -49 32 -178 10 -192 -17 -11 -50 -11 -64 -1 -17 12 -35 51 -35 74 0 39 24
143 35 150 21 15 35 7 54 -31z m217 -71 c3 -14 9 -36 14 -50 21 -60 22 -111 4
-131 -21 -23 -42 -24 -66 -2 -25 22 -25 140 0 200 15 39 18 41 30 26 7 -10 15
-29 18 -43z m334 -39 c28 -96 27 -171 -5 -221 -17 -27 -33 -40 -47 -40 -33 0
-58 29 -58 67 0 48 39 235 52 250 22 27 37 12 58 -56z m-2684 5 c3 -11 21 -52
40 -91 26 -56 34 -85 36 -145 l3 -74 -38 -7 c-38 -6 -38 -6 -62 45 -17 36 -37
59 -64 76 -31 19 -41 31 -41 53 0 29 2 33 50 118 35 60 63 69 76 25z m2494
-86 c6 -12 9 -63 8 -121 -3 -117 -13 -132 -66 -108 -24 10 -32 20 -32 39 0 34
24 118 44 155 9 17 16 36 16 43 0 19 18 14 30 -8z m-2230 -106 c12 -36 24 -78
27 -95 8 -55 -45 -87 -98 -58 -19 10 -20 18 -15 101 6 93 22 133 51 121 8 -2
24 -34 35 -69z m2549 -26 c32 -68 67 -221 55 -247 -4 -9 -6 -23 -5 -32 1 -13
-8 -18 -44 -21 -25 -2 -45 0 -45 4 0 5 -7 8 -15 8 -8 0 -15 4 -15 9 0 5 -9 13
-20 16 -14 4 -20 15 -20 36 0 33 18 116 31 141 5 10 9 29 9 43 0 14 4 25 9 25
5 0 14 14 21 30 7 17 14 30 15 30 2 0 12 -19 24 -42z m-2943 -66 c16 6 61 -95
67 -149 5 -47 4 -54 -15 -64 -16 -8 -31 -8 -59 0 -51 15 -63 56 -44 146 15 74
24 93 35 75 4 -6 11 -10 16 -8z"/>
<path d="M2073 6239 c-43 -12 -73 -53 -73 -98 1 -58 38 -91 105 -91 47 0 75
15 75 42 0 20 -1 20 -25 -6 -28 -30 -54 -33 -85 -8 -29 24 -38 93 -16 127 19
29 66 34 90 9 15 -14 16 -14 16 4 0 12 -9 22 -22 26 -27 7 -24 7 -65 -5z"/>
<path d="M2218 6243 c19 -7 16 -147 -4 -167 -14 -15 -11 -16 31 -16 40 0 44 2
32 14 -12 12 -13 76 -1 76 9 0 53 -74 48 -82 -3 -4 13 -8 34 -8 l40 0 -28 30
c-15 16 -33 43 -40 60 -12 28 -11 33 10 55 13 14 29 25 37 25 7 0 13 5 13 10
0 6 -13 10 -30 10 -20 0 -28 -4 -24 -13 2 -7 -11 -28 -31 -47 l-35 -34 0 41
c0 24 5 43 13 46 6 3 -8 5 -33 5 -25 0 -39 -2 -32 -5z"/>
<path d="M2439 6231 c18 -11 7 -125 -15 -158 -14 -22 -13 -23 18 -23 21 0 28
3 20 8 -9 6 -11 24 -6 65 4 31 10 57 14 57 4 0 27 -33 50 -72 24 -40 45 -75
47 -78 9 -11 21 27 28 87 4 35 13 69 20 77 12 12 11 15 -8 20 -34 9 -38 7 -26
-12 8 -12 8 -32 2 -62 l-9 -45 -37 57 c-20 31 -37 61 -37 66 0 10 -33 22 -60
22 -13 0 -13 -2 -1 -9z"/>
<path d="M1912 6223 c-21 -4 -22 -6 -9 -21 19 -22 39 -109 32 -133 -9 -28 -41
-42 -65 -29 -20 11 -40 70 -43 127 -2 29 -5 33 -22 29 -11 -3 -27 -6 -35 -6
-12 0 -12 -2 -2 -9 7 -4 20 -36 28 -71 8 -35 20 -70 26 -77 16 -19 82 -16 109
6 22 18 23 21 12 92 -6 48 -7 78 0 87 5 6 6 11 1 11 -5 -1 -19 -4 -32 -6z"/>
<path d="M2676 6189 c16 -21 -22 -159 -44 -159 -32 0 4 -17 68 -33 49 -12 66
-13 72 -4 13 21 9 28 -11 15 -15 -9 -25 -9 -46 0 -23 11 -26 16 -20 45 9 40 7
37 33 30 12 -3 22 -13 23 -22 0 -12 2 -11 9 4 13 30 12 51 -1 38 -6 -6 -20 -8
-31 -5 -15 4 -18 10 -13 31 4 14 10 30 15 34 13 14 50 -3 60 -26 8 -21 9 -21
9 4 1 22 -5 27 -51 39 -29 7 -60 15 -68 18 -12 5 -13 3 -4 -9z"/>
<path d="M1648 6151 c-69 -23 -77 -29 -77 -51 0 -24 1 -24 9 -4 8 19 38 39 46
31 2 -2 15 -36 28 -74 18 -52 21 -74 13 -82 -14 -14 0 -14 42 0 27 9 29 13 17
23 -16 11 -56 116 -56 144 0 10 8 13 30 10 24 -4 30 -1 30 14 0 10 -1 18 -2
17 -2 -1 -38 -13 -80 -28z"/>
<path d="M2856 6139 c9 -11 6 -29 -15 -82 -15 -38 -33 -72 -39 -76 -7 -4 14
-17 52 -30 61 -22 86 -22 86 -1 0 5 -7 7 -15 4 -8 -4 -26 -3 -40 0 -28 7 -34
40 -12 71 13 17 15 17 35 -3 17 -17 21 -18 26 -5 10 24 7 33 -8 27 -8 -3 -21
-2 -30 3 -12 7 -12 12 -1 41 13 30 16 31 40 20 14 -6 25 -20 25 -30 0 -11 5
-16 10 -13 26 16 8 41 -42 59 -29 10 -60 21 -68 24 -12 5 -13 3 -4 -9z"/>
<path d="M1440 6063 c-33 -16 -49 -28 -39 -30 23 -6 80 -138 66 -152 -17 -17
-5 -14 67 19 61 28 80 50 56 65 -5 3 -10 -1 -10 -9 0 -9 -12 -23 -26 -33 -26
-16 -27 -16 -46 7 -25 31 -19 55 14 55 23 -1 25 1 15 23 -6 13 -13 19 -15 13
-2 -6 -12 -16 -23 -21 -15 -9 -21 -5 -35 21 -19 37 -7 52 39 46 17 -2 26 1 24
7 -6 19 -30 16 -87 -11z"/>
<path d="M2088 6023 c-16 -2 -28 -10 -28 -16 0 -7 5 -52 10 -102 5 -49 10
-160 10 -245 0 -85 6 -208 12 -273 9 -102 13 -117 27 -112 9 4 27 9 41 11 l25
5 -2 277 c-2 152 -6 319 -9 370 -7 102 -2 98 -86 85z"/>
<path d="M2278 5683 c3 -191 8 -358 13 -369 5 -15 18 -23 42 -26 l35 -4 8 341
c5 187 9 354 9 370 0 29 -1 30 -56 33 l-55 3 4 -348z"/>
<path d="M3086 6014 c-20 -20 -20 -37 0 -75 20 -40 15 -74 -11 -74 -13 0 -26
12 -36 34 -15 31 -16 32 -22 12 -10 -40 54 -79 98 -59 35 16 40 43 15 90 -11
22 -19 47 -16 55 9 23 49 11 57 -17 6 -23 7 -23 14 -6 17 41 -65 74 -99 40z"/>
<path d="M1313 5999 c-18 -12 -33 -23 -33 -26 0 -2 4 -2 9 2 9 5 51 -40 51
-54 0 -7 -58 -41 -70 -41 -5 0 -14 15 -21 34 -13 35 -13 35 -42 19 -26 -13
-28 -17 -14 -24 23 -13 90 -127 84 -144 -4 -9 6 -7 31 8 24 14 31 23 21 25
-14 2 -55 60 -47 66 25 19 55 36 63 36 16 0 47 -58 38 -73 -4 -7 2 -6 17 4 14
8 31 19 39 24 12 7 10 10 -6 16 -22 8 -89 116 -85 137 4 16 3 15 -35 -9z"/>
<path d="M2500 6004 c0 -5 0 -119 0 -254 1 -237 10 -334 39 -430 6 -19 11 -53
11 -75 0 -33 6 -47 33 -73 18 -18 36 -32 40 -32 5 0 7 179 7 398 -1 218 -1
399 0 402 10 29 6 42 -14 50 -37 14 -116 23 -116 14z"/>
<path d="M1885 5993 c-75 -17 -87 -24 -80 -52 3 -14 11 -168 16 -341 11 -364
17 -460 29 -460 5 0 36 18 70 41 70 46 66 31 40 174 -7 41 -9 154 -4 353 l7
292 -29 -1 c-16 -1 -38 -3 -49 -6z"/>
<path d="M3236 5956 c8 -20 -74 -136 -95 -136 -13 -1 -12 -3 4 -16 33 -25 59
-38 50 -25 -9 15 73 141 91 141 32 0 9 -71 -26 -83 -25 -8 16 -20 45 -13 38
10 44 51 12 84 -36 37 -89 69 -81 48z"/>
<path d="M1097 5861 c-66 -43 -80 -116 -31 -165 40 -39 93 -36 141 8 33 30 36
36 26 57 l-12 24 0 -25 c-1 -31 -10 -44 -38 -59 -45 -23 -113 33 -113 94 0 40
21 59 60 53 32 -5 37 1 18 20 -16 16 -18 15 -51 -7z"/>
<path d="M3392 5848 c4 -19 -82 -128 -101 -128 -10 0 -7 -8 9 -25 25 -27 42
-33 35 -12 -6 15 31 60 44 53 5 -4 5 -21 0 -43 -10 -45 -4 -70 21 -83 15 -8
17 -6 13 10 -3 11 -2 36 1 55 6 29 11 35 32 35 16 0 28 8 36 25 10 21 8 30 -8
52 -28 37 -87 81 -82 61z m57 -56 c11 -21 -11 -62 -33 -62 -29 0 -35 23 -13
51 26 33 33 35 46 11z"/>
<path d="M935 5720 c-19 -20 -24 -30 -14 -30 16 0 114 -96 120 -118 3 -8 15
-2 34 19 17 18 24 29 17 24 -18 -10 -133 102 -125 121 8 21 0 17 -32 -16z"/>
<path d="M3550 5699 c0 -19 -78 -95 -108 -106 l-23 -9 32 -29 c18 -17 29 -24
24 -17 -8 15 75 108 108 121 16 6 16 9 -8 31 -18 17 -25 19 -25 9z"/>
<path d="M3630 5621 c0 -20 -92 -96 -123 -102 -17 -4 -16 -7 8 -29 16 -15 24
-18 20 -9 -4 11 9 30 41 58 26 23 48 40 50 38 2 -1 -6 -43 -17 -92 -10 -49
-19 -90 -19 -92 0 -13 31 5 83 47 34 28 68 48 75 45 7 -3 6 5 -5 21 -16 25
-17 25 -24 7 -8 -21 -69 -77 -76 -70 -2 3 3 37 11 77 14 65 14 74 -1 96 -19
29 -23 30 -23 5z"/>
<path d="M781 5540 c-29 -35 -37 -50 -26 -50 23 0 119 -79 125 -103 5 -17 12
-11 48 37 30 40 41 62 37 76 -8 26 -25 26 -18 1 7 -26 -14 -61 -36 -61 -10 0
-26 9 -36 20 -15 16 -16 22 -5 35 7 9 20 13 29 10 11 -4 10 -1 -4 15 -21 23
-37 27 -29 7 3 -8 -2 -19 -10 -26 -12 -10 -20 -9 -40 4 -14 10 -26 21 -26 25
0 13 37 40 56 40 16 0 17 2 4 10 -22 15 -24 14 -69 -40z"/>
<path d="M686 5409 c-16 -28 -16 -29 2 -29 49 0 62 -38 28 -83 -13 -17 -16
-18 -40 -2 -13 9 -26 24 -28 33 -2 12 -10 5 -26 -22 -15 -26 -18 -37 -9 -33
15 6 124 -54 143 -78 8 -11 14 -8 28 16 17 28 16 29 -2 29 -11 0 -30 8 -42 18
-21 17 -21 18 -3 50 10 17 23 32 28 32 15 -1 52 -33 57 -49 3 -9 12 0 26 24
16 25 18 36 9 32 -15 -6 -124 54 -143 78 -8 11 -14 8 -28 -16z"/>
<path d="M3733 5413 c-31 -6 -73 -59 -73 -92 0 -22 30 -82 55 -109 2 -2 19 2
39 9 l35 13 -17 30 c-12 24 -17 27 -20 14 -5 -26 -43 -34 -59 -12 -17 24 -8
53 28 87 57 53 142 21 125 -48 -5 -19 -3 -23 9 -19 21 8 19 30 -7 71 -17 28
-76 68 -90 62 -2 -1 -13 -4 -25 -6z"/>
<path d="M2154 5255 c-69 -15 -181 -68 -256 -122 -42 -30 -57 -51 -89 -117
-40 -86 -53 -132 -64 -236 -4 -35 -13 -74 -20 -85 -15 -24 -65 -195 -65 -223
0 -11 6 -38 14 -60 14 -39 14 -42 -10 -67 -13 -14 -39 -32 -56 -40 -69 -29
-163 -153 -242 -320 -150 -314 -204 -669 -161 -1053 19 -167 20 -171 85 -372
28 -86 61 -192 122 -395 29 -94 37 -110 56 -113 28 -4 27 5 -2 94 -13 39 -31
106 -41 150 -9 43 -28 122 -41 174 -19 77 -26 143 -35 350 -6 140 -9 311 -6
380 15 301 88 560 256 900 57 116 78 150 106 168 36 23 44 49 23 70 -22 22
-13 177 15 257 94 267 140 366 180 379 37 13 69 -11 130 -100 26 -38 64 -86
83 -106 82 -85 190 -52 285 87 68 101 140 132 187 82 24 -26 68 -135 84 -211
6 -28 19 -68 29 -88 20 -39 49 -207 49 -282 0 -25 -5 -56 -11 -69 -9 -20 -5
-34 27 -93 20 -38 63 -111 96 -161 120 -188 224 -435 258 -608 58 -303 50
-653 -20 -908 -11 -39 -20 -82 -20 -95 0 -14 -9 -52 -20 -86 -10 -33 -30 -112
-43 -173 l-23 -113 22 0 c26 0 28 6 63 165 10 50 40 155 65 235 44 136 58 184
116 385 47 162 34 493 -31 742 -56 220 -152 437 -252 569 -53 70 -138 144
-166 144 -5 0 -14 7 -21 15 -9 11 -9 34 1 103 12 84 11 94 -11 171 -13 45 -26
84 -30 86 -5 3 -11 33 -15 67 -4 35 -13 77 -20 93 -7 17 -18 63 -23 103 -9 61
-17 82 -47 120 -78 103 -215 192 -324 212 -69 13 -111 12 -187 -5z"/>
<path d="M571 5218 c-9 -22 -52 -118 -58 -128 -2 -3 6 -11 16 -17 18 -12 19
-10 14 24 -6 34 -5 36 19 30 13 -4 50 -18 81 -32 39 -18 54 -30 50 -41 -12
-31 8 -12 22 22 18 44 18 45 2 38 -7 -2 -43 9 -81 26 -72 33 -85 58 -36 70
l25 6 -23 13 c-20 10 -23 9 -31 -11z"/>
<path d="M3855 5216 c-10 -7 -21 -31 -24 -56 -7 -52 -32 -73 -58 -48 -14 15
-15 21 -4 44 14 32 9 41 -12 19 -21 -20 -5 -69 30 -92 32 -21 70 -5 78 34 13
63 21 78 40 78 16 0 20 -6 19 -32 -2 -33 12 -45 22 -19 7 18 -21 72 -41 80
-23 9 -29 8 -50 -8z"/>
<path d="M3932 4997 c-6 -7 -17 -31 -24 -53 -9 -28 -19 -40 -36 -42 -30 -5
-40 24 -19 60 16 27 16 29 1 26 -30 -6 -37 -31 -21 -71 18 -42 35 -52 72 -43
26 7 38 27 49 79 5 18 13 27 27 27 25 0 36 -27 20 -51 -12 -20 -5 -24 18 -10
12 8 12 15 0 48 -12 31 -20 39 -45 41 -17 2 -36 -3 -42 -11z"/>
<path d="M462 4923 c-6 -27 -14 -56 -17 -65 -5 -13 -2 -15 13 -11 27 7 134
-24 149 -43 13 -18 18 -12 28 36 6 29 5 33 -6 24 -9 -7 -25 -8 -46 -2 -25 6
-30 12 -26 29 3 11 13 23 21 27 13 4 12 7 -4 13 -33 13 -48 11 -35 -5 13 -15
5 -46 -13 -46 -28 0 -56 14 -56 26 0 8 9 23 20 34 25 25 25 30 2 30 -14 0 -21
-12 -30 -47z"/>
<path d="M4030 4850 c11 -11 20 -24 20 -29 0 -16 -149 -44 -165 -31 -11 9 -11
4 -3 -32 10 -45 18 -61 18 -35 0 11 19 20 69 31 39 9 75 16 80 16 14 0 14 -43
0 -57 -7 -7 -4 -9 13 -6 l24 4 -20 80 c-15 63 -23 79 -38 79 -17 0 -17 -1 2
-20z"/>
<path d="M2523 4819 c-64 -31 -135 -149 -102 -170 35 -22 114 -3 162 39 19 17
22 57 7 96 -8 22 -7 26 10 26 10 0 26 -10 34 -22 20 -29 21 -16 1 22 -19 37
-51 39 -112 9z m41 -35 c17 -17 22 -44 7 -44 -5 0 -11 8 -15 18 -3 9 -9 23
-12 30 -8 17 1 15 20 -4z"/>
<path d="M1852 4818 c-7 -7 -12 -23 -12 -37 1 -25 1 -25 12 -6 13 24 28 35 46
35 10 0 12 -10 7 -40 -8 -50 8 -79 65 -115 47 -30 80 -32 111 -6 l22 18 -39
59 c-28 42 -52 65 -84 81 -50 24 -109 30 -128 11z m101 -60 c-16 -18 -18 -19
-21 -3 -4 19 16 37 31 28 4 -3 0 -14 -10 -25z"/>
<path d="M436 4749 c-46 -54 -26 -138 38 -159 86 -28 157 50 122 134 -17 42
-42 56 -94 56 -33 0 -45 -6 -66 -31z m124 -24 c36 -19 42 -68 11 -85 -53 -28
-151 4 -151 50 0 44 83 65 140 35z"/>
<path d="M1871 4678 c-4 -13 -14 -92 -21 -176 l-12 -153 23 -25 c12 -13 45
-35 73 -48 l51 -24 7 76 c3 42 8 123 9 179 l4 102 -40 29 c-22 16 -46 36 -54
45 -18 23 -30 21 -40 -5z"/>
<path d="M2182 4667 c-42 -21 -43 -23 -39 -60 6 -43 -17 -77 -52 -77 -10 0
-29 -9 -42 -21 l-24 -20 50 6 c49 6 95 27 95 44 0 4 11 21 25 37 14 16 30 35
36 42 18 23 43 9 76 -43 54 -84 52 -83 116 -71 58 10 68 26 16 26 -17 0 -44 7
-60 16 -28 14 -30 19 -25 52 7 44 2 54 -41 76 -42 21 -78 19 -131 -7z m16 -50
c2 -10 -3 -17 -12 -17 -18 0 -29 16 -21 31 9 14 29 6 33 -14z m140 6 c-2 -10
-10 -18 -18 -18 -8 0 -16 8 -18 18 -2 12 3 17 18 17 15 0 20 -5 18 -17z"/>
<path d="M3903 4657 c4 -10 7 -26 8 -35 0 -11 2 -12 6 -4 8 21 43 13 55 -13
14 -30 2 -46 -34 -48 -21 -2 -23 -6 -19 -40 3 -34 5 -36 16 -20 7 10 47 34 89
52 42 18 76 37 76 42 0 12 -31 25 -110 45 -36 9 -71 21 -79 27 -12 10 -13 9
-8 -6z m136 -53 c6 -6 -1 -11 -26 -18 -19 -6 -23 -4 -23 14 0 18 4 20 23 14
12 -3 24 -8 26 -10z"/>
<path d="M2541 4636 l-53 -21 8 -140 c5 -77 8 -164 7 -193 -2 -52 -2 -52 25
-46 15 4 45 23 66 43 22 20 45 41 52 47 9 8 10 28 4 80 -5 38 -10 94 -10 124
0 67 -17 130 -33 129 -7 -1 -36 -11 -66 -23z"/>
<path d="M2212 4568 c-18 -23 -32 -45 -32 -50 0 -11 -56 -38 -80 -38 -18 0
-16 -4 15 -35 19 -20 35 -39 35 -43 0 -5 18 -18 40 -31 22 -12 40 -25 40 -29
0 -4 4 -13 9 -20 8 -14 30 2 125 95 24 24 54 47 67 52 20 8 16 10 -28 10 -43
1 -55 5 -72 27 -12 15 -21 31 -21 36 0 5 -6 16 -12 23 -7 8 -19 21 -26 30 -19
22 -24 19 -60 -27z m-40 -135 c25 -30 33 -47 17 -38 -24 14 -49 38 -49 47 0
14 16 9 32 -9z m189 -1 c-12 -23 -41 -48 -41 -35 0 5 7 19 16 31 19 27 39 30
25 4z"/>
<path d="M495 4472 c-6 -4 -21 -22 -34 -39 -26 -38 -61 -45 -61 -12 0 12 8 28
18 35 16 12 16 13 -4 14 -48 0 -37 -94 12 -106 24 -6 32 -1 64 36 24 28 42 41
55 39 30 -6 29 -36 -1 -64 -24 -22 -25 -25 -7 -25 28 0 43 19 43 55 0 56 -48
94 -85 67z"/>
<path d="M4084 4467 c10 -7 17 -22 14 -33 -3 -16 -13 -19 -74 -22 -56 -2 -75
1 -88 13 -15 15 -16 13 -15 -32 0 -26 3 -42 6 -35 3 8 31 12 89 12 77 0 84 -2
84 -20 0 -10 -8 -24 -17 -29 -16 -9 -16 -10 5 -11 21 0 22 3 22 85 0 81 -1 85
-22 85 -20 0 -21 -1 -4 -13z"/>
<path d="M447 4309 c-28 -16 -49 -74 -42 -117 12 -75 16 -86 24 -73 12 18 153
35 163 18 12 -18 10 47 -3 99 -7 26 -22 53 -37 64 -27 22 -76 26 -105 9z m96
-40 c28 -15 37 -28 37 -56 0 -23 -9 -26 -107 -38 l-53 -7 0 35 c0 59 67 95
123 66z"/>
<path d="M3910 4262 c0 -16 -3 -49 -6 -74 -6 -40 -4 -46 14 -50 20 -6 20 -4 6
17 -21 33 -3 80 29 71 12 -3 28 -6 35 -6 17 0 15 -25 -4 -44 -14 -15 -13 -16
9 -16 21 0 23 4 19 32 -4 29 -3 31 19 25 13 -4 30 -7 37 -7 21 0 14 -48 -10
-64 l-22 -16 21 0 c28 0 29 3 36 80 4 36 4 59 1 52 -7 -16 -130 -6 -161 14
-22 14 -23 13 -23 -14z"/>
<path d="M530 4064 c-25 -8 -57 -13 -72 -11 -20 3 -28 -1 -28 -12 0 -19 20
-52 20 -34 0 15 24 28 68 38 31 6 33 6 23 -13 -6 -11 -27 -41 -46 -66 -27 -36
-34 -52 -29 -72 5 -20 8 -22 18 -11 17 22 145 50 162 37 11 -10 11 -6 4 21
-11 37 -20 49 -20 25 0 -18 -26 -31 -86 -42 l-37 -7 44 62 c80 112 74 101 48
100 -13 -1 -44 -7 -69 -15z"/>
<path d="M3876 4028 c-9 -36 -7 -48 8 -42 12 5 130 -21 148 -32 16 -10 -6 -34
-31 -34 -30 0 -46 9 -54 30 -3 8 -6 1 -6 -16 -1 -38 18 -57 56 -52 31 3 50 34
60 93 5 30 3 33 -15 28 -21 -5 -129 22 -148 38 -8 6 -14 2 -18 -13z"/>
<path d="M3832 3875 c-15 -34 -15 -34 6 -28 24 6 43 -17 35 -45 -4 -16 -13
-22 -34 -22 -16 0 -29 6 -30 13 0 10 -69 -128 -69 -140 0 -2 4 -2 9 2 12 7
151 -63 151 -76 0 -15 -27 -22 -55 -15 -17 4 -25 13 -25 29 0 20 -4 22 -50 19
-43 -3 -54 -9 -74 -35 -45 -61 -60 -88 -45 -82 8 3 28 -6 44 -20 l30 -25 -58
2 c-56 2 -59 0 -80 -31 l-21 -34 22 12 c11 6 43 11 71 11 58 0 76 -19 69 -76
-4 -38 2 -43 19 -15 10 16 9 26 -3 50 -8 17 -14 43 -12 57 l3 27 31 -29 31
-29 16 22 c20 26 21 30 4 30 -23 0 -126 77 -127 95 0 21 7 26 57 34 38 6 42 4
55 -22 15 -32 50 -43 74 -23 9 7 26 34 40 61 20 39 21 46 7 41 -9 -4 -42 8
-80 28 -49 26 -63 39 -61 54 3 18 11 20 101 20 118 0 122 8 36 80 -33 28 -63
58 -67 68 -7 17 -9 16 -20 -8z m93 -85 c18 -19 17 -20 -7 -20 -30 0 -38 7 -31
26 7 19 17 18 38 -6z"/>
<path d="M643 3874 c15 -8 28 -21 29 -29 0 -8 1 -20 2 -26 1 -6 -14 -17 -32
-25 -28 -12 -34 -11 -38 1 -4 8 -4 22 0 30 6 16 -11 20 -32 6 -11 -7 -11 -9 2
-14 28 -11 19 -44 -14 -56 -28 -9 -32 -8 -41 16 -6 18 -6 30 2 39 16 19 6 27
-14 11 -14 -11 -13 -18 11 -77 15 -36 28 -58 30 -48 5 24 140 72 159 57 10 -9
7 4 -8 42 -12 30 -24 62 -26 72 -4 11 -15 17 -32 17 l-26 -1 28 -15z"/>
<path d="M720 3727 c0 -17 -134 -82 -149 -73 -6 4 -4 -9 6 -29 10 -20 19 -32
21 -25 5 15 141 82 152 75 14 -9 12 1 -5 35 -17 32 -25 38 -25 17z"/>
<path d="M760 3645 c0 -11 -9 -35 -20 -53 -16 -26 -25 -31 -44 -26 -25 6 -56
-17 -56 -43 0 -20 51 -113 62 -113 4 0 7 5 5 11 -3 15 122 92 139 85 8 -3 5 9
-8 31 -20 33 -22 34 -29 15 -7 -19 -45 -39 -55 -29 -3 3 4 24 16 46 19 38 19
44 6 69 -13 23 -15 24 -16 7z m-39 -156 c-27 -23 -47 -24 -54 -5 -12 32 38 63
63 39 13 -13 12 -17 -9 -34z"/>
<path d="M900 3428 c0 -10 -11 -25 -25 -34 -21 -13 -28 -14 -41 -4 -8 7 -13
19 -10 27 7 16 -6 17 -21 2 -9 -9 -6 -16 10 -30 l22 -19 -29 -26 -28 -25 -15
21 c-8 12 -13 30 -10 40 4 17 2 18 -14 9 -19 -10 -18 -12 13 -55 40 -56 58
-72 58 -52 0 14 86 84 120 96 19 7 19 8 -5 37 -18 23 -24 26 -25 13z"/>
</g>
</svg>
